<svg fill="none" xmlns="http://www.w3.org/2000/svg" viewBox="40 20 26 20">
  <g filter="url(#filter0_dd_1302_8255)">
    <rect x="40" y="20" width="26" height="20" rx="4" fill="#000008"></rect>
    <path
      d="M52.6653 32.3471H51.905V26.4316H53.9204C54.4312 26.4316 54.8668 26.6018 55.2231 26.9424C55.5874 27.2829 55.7695 27.6986 55.7695 28.1896C55.7695 28.6925 55.5874 29.1082 55.2231 29.4448C54.8707 29.7814 54.4352 29.9477 53.9204 29.9477H52.6653V32.3471ZM52.6653 27.1601V29.2231H53.9363C54.2372 29.2231 54.4906 29.1201 54.6886 28.9182C54.8905 28.7162 54.9935 28.4707 54.9935 28.1936C54.9935 27.9204 54.8905 27.6788 54.6886 27.4769C54.4906 27.267 54.2412 27.1641 53.9363 27.1641H52.6653V27.1601Z"
      fill="white"></path>
    <path
      d="M57.7571 28.1659C58.3194 28.1659 58.7628 28.3163 59.0875 28.6172C59.4122 28.9182 59.5745 29.33 59.5745 29.8526V32.3471H58.85V31.7849H58.8183C58.5055 32.2481 58.0858 32.4778 57.5631 32.4778C57.1157 32.4778 56.7435 32.3471 56.4426 32.0818C56.1416 31.8166 55.9912 31.4879 55.9912 31.092C55.9912 30.6722 56.1496 30.3396 56.4663 30.0942C56.7831 29.8447 57.2068 29.722 57.7334 29.722C58.1848 29.722 58.5569 29.8051 58.846 29.9714V29.7972C58.846 29.5319 58.743 29.3102 58.5332 29.1241C58.3233 28.938 58.0778 28.8469 57.7967 28.8469C57.3731 28.8469 57.0365 29.0251 56.791 29.3854L56.1218 28.9657C56.4901 28.4312 57.0365 28.1659 57.7571 28.1659ZM56.7752 31.1038C56.7752 31.3018 56.8583 31.4681 57.0286 31.5988C57.1949 31.7294 57.3929 31.7968 57.6185 31.7968C57.9393 31.7968 58.2243 31.678 58.4738 31.4404C58.7232 31.2028 58.85 30.9257 58.85 30.6049C58.6124 30.4188 58.2837 30.3238 57.8601 30.3238C57.5512 30.3238 57.2939 30.399 57.088 30.5455C56.8781 30.7 56.7752 30.8861 56.7752 31.1038Z"
      fill="white"></path>
    <path
      d="M63.7083 28.2966L61.1742 34.125H60.3902L61.3326 32.0858L59.6617 28.2966H60.4892L61.6929 31.2029H61.7088L62.8808 28.2966H63.7083Z"
      fill="white"></path>
    <path
      d="M49.6413 29.4686C49.6413 29.2207 49.6192 28.9835 49.578 28.7554H46.3914V30.0621L48.2266 30.0625C48.1522 30.4972 47.9126 30.8679 47.5456 31.1149V31.9627H48.638C49.2759 31.3723 49.6413 30.4996 49.6413 29.4686Z"
      fill="#4285F4"></path>
    <path
      d="M47.546 31.115C47.2419 31.3201 46.8503 31.44 46.3921 31.44C45.5072 31.44 44.7565 30.8437 44.4876 30.04H43.3607V30.9142C43.919 32.0221 45.0665 32.7823 46.3921 32.7823C47.3084 32.7823 48.0781 32.481 48.6384 31.9623L47.546 31.115Z"
      fill="#34A853"></path>
    <path
      d="M44.3815 29.3913C44.3815 29.1656 44.4191 28.9475 44.4876 28.7424V27.8681H43.3607C43.1299 28.3262 43 28.8433 43 29.3913C43 29.9393 43.1303 30.4564 43.3607 30.9146L44.4876 30.0403C44.4191 29.8352 44.3815 29.617 44.3815 29.3913Z"
      fill="#FABB05"></path>
    <path
      d="M46.3921 27.3423C46.8922 27.3423 47.3401 27.5145 47.6936 27.8511L48.6617 26.8838C48.0738 26.3362 47.3072 26 46.3921 26C45.0669 26 43.919 26.7602 43.3607 27.8681L44.4876 28.7424C44.7564 27.9386 45.5072 27.3423 46.3921 27.3423Z"
      fill="#E94235"></path>
  </g>
  <defs>
    <filter
      id="filter0_dd_1302_8255"
      x="0"
      y="0"
      width="106"
      height="100"
      filterUnits="userSpaceOnUse"
      color-interpolation-filters="sRGB">
      <feFlood flood-opacity="0" result="BackgroundImageFix"></feFlood>
      <feColorMatrix
        in="SourceAlpha"
        type="matrix"
        values="0 0 0 0 0 0 0 0 0 0 0 0 0 0 0 0 0 0 127 0"
        result="hardAlpha"></feColorMatrix>
      <feOffset dy="2"></feOffset>
      <feGaussianBlur stdDeviation="10"></feGaussianBlur>
      <feColorMatrix
        type="matrix"
        values="0 0 0 0 0.717647 0 0 0 0 0.717647 0 0 0 0 0.717647 0 0 0 0.08 0"></feColorMatrix>
      <feBlend
        mode="normal"
        in2="BackgroundImageFix"
        result="effect1_dropShadow_1302_8255"></feBlend>
      <feColorMatrix
        in="SourceAlpha"
        type="matrix"
        values="0 0 0 0 0 0 0 0 0 0 0 0 0 0 0 0 0 0 127 0"
        result="hardAlpha"></feColorMatrix>
      <feOffset dy="20"></feOffset>
      <feGaussianBlur stdDeviation="20"></feGaussianBlur>
      <feColorMatrix
        type="matrix"
        values="0 0 0 0 0.717647 0 0 0 0 0.717647 0 0 0 0 0.717647 0 0 0 0.08 0"></feColorMatrix>
      <feBlend
        mode="normal"
        in2="effect1_dropShadow_1302_8255"
        result="effect2_dropShadow_1302_8255"></feBlend>
      <feBlend
        mode="normal"
        in="SourceGraphic"
        in2="effect2_dropShadow_1302_8255"
        result="shape"></feBlend>
    </filter>
  </defs>
</svg>
