<svg
  width="26"
  height="20"
  viewBox="0 0 26 20"
  fill="none"
  xmlns="http://www.w3.org/2000/svg">
  <rect width="26" height="20" rx="4" fill="#252525" />
  <path d="M15.6366 5.12451H10.3638V14.8758H15.6366V5.12451Z" fill="#FF5F00" />
  <path
    d="M10.6985 10C10.6976 9.06088 10.9044 8.13387 11.3032 7.28916C11.702 6.44444 12.2822 5.70416 13.0001 5.12435C12.1111 4.40526 11.0435 3.95806 9.91922 3.83388C8.79496 3.7097 7.65942 3.91354 6.6424 4.42211C5.62538 4.93068 4.76792 5.72346 4.16802 6.70983C3.56813 7.6962 3.25 8.83636 3.25 10C3.25 11.1636 3.56813 12.3038 4.16802 13.2902C4.76792 14.2765 5.62538 15.0693 6.6424 15.5779C7.65942 16.0865 8.79496 16.2903 9.91922 16.1661C11.0435 16.0419 12.1111 15.5947 13.0001 14.8756C12.2822 14.2958 11.702 13.5556 11.3032 12.7108C10.9044 11.8661 10.6977 10.9391 10.6985 10Z"
    fill="#EB001B" />
  <path
    d="M22.7501 10C22.7501 11.1636 22.432 12.3038 21.8321 13.2902C21.2323 14.2765 20.3748 15.0693 19.3578 15.5779C18.3408 16.0865 17.2053 16.2903 16.0811 16.1661C14.9568 16.0419 13.8892 15.5947 13.0002 14.8757C13.7175 14.2953 14.2973 13.5549 14.696 12.7103C15.0947 11.8657 15.3019 10.939 15.3019 10C15.3019 9.06103 15.0947 8.13431 14.696 7.28973C14.2973 6.44515 13.7175 5.70475 13.0002 5.12435C13.8892 4.40525 14.9568 3.95806 16.0811 3.83388C17.2053 3.7097 18.3408 3.91355 19.3578 4.42212C20.3748 4.9307 21.2323 5.72348 21.8321 6.70985C22.432 7.69622 22.7501 8.83638 22.7501 10Z"
    fill="#F79E1B" />
</svg>
