<svg fill="none" xmlns="http://www.w3.org/2000/svg" viewBox="40 20 26 20">
  <g filter="url(#filter0_dd_1302_8266)">
    <rect x="40" y="20" width="26" height="20" rx="4" fill="#0081FB"></rect>
    <path
      d="M61.2999 31.6668L60.5085 32.267L59.7193 31.7174C59.7193 31.6596 59.7193 31.5983 59.7157 31.5369C59.7157 31.4792 59.7157 31.4178 59.712 31.3565C59.6615 29.9347 59.3007 28.4118 58.5789 27.2967C58.0232 26.4415 57.3123 26.0337 56.5184 26.0337C55.6848 26.0337 55.0063 26.5317 54.2557 27.6143C54.2341 27.6468 54.2088 27.6792 54.1872 27.7153C54.1727 27.7334 54.1619 27.7514 54.1475 27.7731C54.1114 27.8272 54.0753 27.8813 54.0392 27.9391C53.7144 28.4443 53.3752 29.0325 53.0071 29.6821C52.9746 29.7434 52.9386 29.8048 52.9061 29.8661C52.8953 29.8805 52.8844 29.8986 52.8772 29.913L52.8014 30.0465L52.354 30.8368C51.3038 32.6953 51.0368 33.1211 50.5135 33.8176C49.5933 35.0409 48.8066 35.5065 47.7709 35.5065C46.544 35.5065 45.7645 34.976 45.2846 34.1749C44.8912 33.5253 44.7 32.67 44.7 31.6957L46.4935 31.7571C46.4935 32.3922 46.6306 32.8757 46.8146 33.1717C47.0528 33.5542 47.4029 33.7021 47.7673 33.7021C48.2328 33.7021 48.6659 33.6047 49.4887 32.4644C50.1491 31.5514 50.9285 30.2739 51.4518 29.4692L51.9462 28.7149L52.0508 28.5489L52.1591 28.3865L52.3395 28.1087C52.6138 27.6901 52.9097 27.2462 53.2273 26.8204C53.2633 26.7699 53.2994 26.7193 53.3391 26.6688C53.3752 26.6183 53.4149 26.5678 53.451 26.5209C53.7758 26.1059 54.1186 25.7197 54.4867 25.4022C55.1543 24.8212 55.8724 24.5 56.5978 24.5C57.8139 24.5 58.9723 25.2037 59.86 26.5245C60.7658 27.8741 61.2385 29.5558 61.2926 31.306C61.2963 31.3637 61.2963 31.4251 61.2963 31.4864C61.2999 31.5477 61.2999 31.6055 61.2999 31.6668Z"
      fill="white"></path>
    <path
      d="M46.114 26.6493C46.9357 25.3845 48.1222 24.5 49.4827 24.5C50.2708 24.5 51.0539 24.7328 51.872 25.3996C52.7666 26.1286 53.7204 27.3288 54.9102 29.3071L55.3367 30.0169C56.3666 31.7296 56.9523 32.6105 57.2955 33.0262C57.7365 33.5599 58.0118 33.7021 58.4131 33.7021C59.4308 33.7021 59.7184 32.7855 59.7184 31.717L61.3 31.6676C61.3 32.7844 61.0796 33.6051 60.7043 34.2532C60.3419 34.88 59.6354 35.5065 58.4467 35.5065C57.7076 35.5065 57.053 35.3462 56.3291 34.6646C55.7726 34.1413 55.122 33.2117 54.6215 32.3763L53.1325 29.8939C52.3855 28.6482 51.7002 27.7189 51.3037 27.2985C50.8771 26.846 50.3502 26.3047 49.4751 26.3047C48.7668 26.3047 48.1439 26.7962 47.6405 27.5551L46.114 26.6493Z"
      fill="white"></path>
    <path
      d="M49.4814 26.3043C48.7745 26.3043 48.1524 26.7958 47.65 27.5547C46.9395 28.6272 46.5043 30.2244 46.5043 31.7585C46.5043 32.3911 46.5032 32.8671 46.6847 33.1608L45.299 34.1759C44.9071 33.5242 44.7 32.6917 44.7 31.7174C44.7 29.9455 45.1889 28.0758 46.1138 26.6493C46.9344 25.3845 48.1307 24.5 49.4887 24.5L49.4814 26.3043Z"
      fill="white"></path>
    <path
      opacity="0.05"
      d="M52.1592 28.3866L52.0509 28.549L51.9463 28.7149C52.2025 29.0866 52.4948 29.5341 52.8015 30.0466L52.8773 29.913C52.8845 29.8986 52.8954 29.8806 52.9062 29.8661C52.9387 29.8048 52.9748 29.7434 53.0072 29.6821C52.7077 29.1913 52.419 28.7546 52.1592 28.3866ZM53.3392 26.6688C53.2995 26.7194 53.2635 26.7699 53.2274 26.8204C53.4908 27.1488 53.7578 27.5205 54.0393 27.9391C54.0754 27.8813 54.1115 27.8272 54.1476 27.7731C54.162 27.7514 54.1728 27.7334 54.1873 27.7153C54.2089 27.6793 54.2342 27.6468 54.2558 27.6143C53.9816 27.2101 53.7145 26.8457 53.4511 26.5209C53.415 26.5678 53.3753 26.6183 53.3392 26.6688Z"
      fill="white"></path>
    <path
      opacity="0.07"
      d="M52.1593 28.3866L52.051 28.5489C52.3072 28.917 52.5959 29.3573 52.9063 29.8661C52.9388 29.8048 52.9748 29.7434 53.0073 29.6821C52.7078 29.1913 52.4191 28.7546 52.1593 28.3866ZM53.2275 26.8204C53.4909 27.1488 53.7579 27.5205 54.0394 27.9391C54.0755 27.8813 54.1116 27.8272 54.1477 27.7731C53.8698 27.3617 53.5991 26.9936 53.3393 26.6688C53.2996 26.7193 53.2635 26.7699 53.2275 26.8204Z"
      fill="white"></path>
  </g>
  <defs>
    <filter
      id="filter0_dd_1302_8266"
      x="0"
      y="0"
      width="106"
      height="100"
      filterUnits="userSpaceOnUse"
      color-interpolation-filters="sRGB">
      <feFlood flood-opacity="0" result="BackgroundImageFix"></feFlood>
      <feColorMatrix
        in="SourceAlpha"
        type="matrix"
        values="0 0 0 0 0 0 0 0 0 0 0 0 0 0 0 0 0 0 127 0"
        result="hardAlpha"></feColorMatrix>
      <feOffset dy="2"></feOffset>
      <feGaussianBlur stdDeviation="10"></feGaussianBlur>
      <feColorMatrix
        type="matrix"
        values="0 0 0 0 0.717647 0 0 0 0 0.717647 0 0 0 0 0.717647 0 0 0 0.08 0"></feColorMatrix>
      <feBlend
        mode="normal"
        in2="BackgroundImageFix"
        result="effect1_dropShadow_1302_8266"></feBlend>
      <feColorMatrix
        in="SourceAlpha"
        type="matrix"
        values="0 0 0 0 0 0 0 0 0 0 0 0 0 0 0 0 0 0 127 0"
        result="hardAlpha"></feColorMatrix>
      <feOffset dy="20"></feOffset>
      <feGaussianBlur stdDeviation="20"></feGaussianBlur>
      <feColorMatrix
        type="matrix"
        values="0 0 0 0 0.717647 0 0 0 0 0.717647 0 0 0 0 0.717647 0 0 0 0.08 0"></feColorMatrix>
      <feBlend
        mode="normal"
        in2="effect1_dropShadow_1302_8266"
        result="effect2_dropShadow_1302_8266"></feBlend>
      <feBlend
        mode="normal"
        in="SourceGraphic"
        in2="effect2_dropShadow_1302_8266"
        result="shape"></feBlend>
    </filter>
  </defs>
</svg>
