<svg
  width="26"
  height="20"
  viewBox="0 0 26 20"
  fill="none"
  xmlns="http://www.w3.org/2000/svg">
  <rect width="26" height="20" rx="4" fill="#373E46" />
  <path
    d="M8.29086 4.1699C8.24619 4.17644 8.19834 4.18299 8.15367 4.18953C7.70701 4.24516 7.30501 4.41532 6.9413 4.68364C6.86473 4.73927 6.79454 4.79817 6.71478 4.86034C6.7084 4.84398 6.70202 4.82762 6.70202 4.81453C6.68926 4.72618 6.67649 4.63456 6.66054 4.54621C6.63821 4.39568 6.56483 4.33024 6.41807 4.33024H6.05117C5.83103 4.33024 5.78955 4.37278 5.78955 4.59856V11.4474C5.78955 11.4801 5.78955 11.5128 5.79274 11.5456C5.79912 11.6437 5.85655 11.7059 5.94907 11.7092C6.1724 11.7124 6.39893 11.7124 6.62226 11.7092C6.71478 11.7092 6.77221 11.6437 6.78178 11.5456C6.78497 11.5128 6.78497 11.4801 6.78497 11.4474V9.07828C6.82006 9.10773 6.83921 9.12409 6.85516 9.14045C7.42625 9.62801 8.08348 9.78835 8.80133 9.64437C9.45218 9.51348 9.90522 9.10445 10.1987 8.50236C10.4221 8.04752 10.5146 7.56322 10.5274 7.0593C10.5433 6.49974 10.4891 5.95 10.2689 5.42972C9.99775 4.78835 9.54789 4.36623 8.86833 4.22225C8.76624 4.19935 8.66095 4.18953 8.55567 4.17317C8.46633 4.1699 8.38019 4.1699 8.29086 4.1699ZM6.77859 5.54097C6.77859 5.49189 6.79135 5.46244 6.83283 5.43299C7.26992 5.12212 7.75167 4.95851 8.28767 5.00105C8.76305 5.03704 9.15228 5.27592 9.35647 5.84856C9.4809 6.19869 9.5128 6.56191 9.5128 6.92841C9.5128 7.26872 9.48728 7.60249 9.38518 7.92971C9.16823 8.6267 8.67052 8.89176 8.02605 8.86231C7.57939 8.84267 7.19016 8.66597 6.83283 8.40746C6.79454 8.37801 6.77859 8.35184 6.77859 8.29948C6.78178 7.83809 6.77859 7.37998 6.77859 6.91859C6.77859 6.46047 6.78178 6.00236 6.77859 5.54097ZM13.3413 4.1699C13.3094 4.17317 13.2775 4.17971 13.2488 4.18299C12.9361 4.19935 12.6299 4.23862 12.3268 4.31715C12.1322 4.36951 11.9439 4.4415 11.7557 4.50694C11.6408 4.54621 11.5834 4.63129 11.5866 4.7589C11.5898 4.86689 11.5834 4.97487 11.5866 5.08286C11.5898 5.23992 11.6536 5.28246 11.8035 5.2432C12.0524 5.17775 12.3012 5.10576 12.5533 5.05668C12.9457 4.98142 13.3413 4.94869 13.7401 5.01087C13.9475 5.04359 14.1421 5.10576 14.2761 5.28574C14.3942 5.4428 14.4388 5.62932 14.4452 5.82239C14.4548 6.09398 14.4516 6.36558 14.4548 6.63718C14.4548 6.65026 14.4516 6.66663 14.4484 6.68299C14.4325 6.67972 14.4197 6.68299 14.4069 6.67971C14.0719 6.59791 13.7338 6.53901 13.386 6.51937C13.0255 6.49974 12.6681 6.52265 12.3236 6.64699C11.912 6.79424 11.5802 7.04948 11.3856 7.46178C11.2356 7.78246 11.2133 8.12278 11.2612 8.46636C11.325 8.92448 11.5483 9.27788 11.9439 9.50367C12.3236 9.71964 12.7351 9.74581 13.1531 9.68037C13.6349 9.60511 14.0624 9.39568 14.4388 9.07828C14.4516 9.06519 14.4676 9.05537 14.4899 9.04228C14.509 9.16663 14.525 9.28443 14.5473 9.40223C14.5665 9.50367 14.6271 9.56911 14.7196 9.57239C14.8919 9.57566 15.0674 9.57566 15.2396 9.57239C15.3258 9.56911 15.3832 9.51021 15.3928 9.41859C15.396 9.38914 15.396 9.35642 15.396 9.32697V5.85838C15.396 5.71767 15.3896 5.57697 15.3673 5.43626C15.3066 5.01414 15.1312 4.66728 14.7611 4.4415C14.5473 4.31061 14.3112 4.24516 14.0656 4.20917C13.9507 4.1928 13.8359 4.18299 13.721 4.16663C13.5966 4.1699 13.469 4.1699 13.3413 4.1699ZM14.458 8.34856C14.458 8.3911 14.4452 8.42055 14.4101 8.44673C14.0528 8.71178 13.6604 8.88849 13.2169 8.9343C13.0351 8.95393 12.8532 8.94739 12.6809 8.8754C12.4799 8.79359 12.3491 8.64961 12.2853 8.44019C12.2215 8.23076 12.2215 8.01479 12.2821 7.80537C12.3619 7.53377 12.5501 7.37998 12.8053 7.2949C13.0638 7.20982 13.3318 7.19673 13.5966 7.22291C13.8646 7.24581 14.1262 7.29817 14.3942 7.33417C14.4452 7.34071 14.4612 7.36689 14.4612 7.41924C14.458 7.57631 14.4612 7.73011 14.4612 7.88718C14.458 8.04097 14.4548 8.19477 14.458 8.34856ZM18.5354 8.55144C18.1238 7.38325 17.7122 6.21178 17.3007 5.04359C17.2369 4.85707 17.1667 4.67382 17.0997 4.49058C17.0646 4.39568 16.9976 4.33351 16.8955 4.33351C16.653 4.33024 16.4105 4.32697 16.1649 4.33024C16.0851 4.33024 16.0468 4.39568 16.0628 4.47749C16.0787 4.54621 16.0979 4.61165 16.1234 4.6771C16.7487 6.26414 17.3772 7.85445 18.009 9.43822C18.0632 9.57239 18.076 9.68691 18.0153 9.82435C17.91 10.0632 17.8271 10.3152 17.7186 10.5541C17.6229 10.7668 17.4634 10.9271 17.2337 10.9893C17.071 11.0351 16.9083 11.0416 16.7423 11.0253C16.6626 11.0187 16.5828 10.9991 16.5031 10.9925C16.3946 10.986 16.3404 11.0351 16.3372 11.1496C16.334 11.2576 16.334 11.3656 16.3372 11.4736C16.3404 11.6535 16.401 11.7353 16.5733 11.7648C16.7519 11.7975 16.9338 11.827 17.1124 11.8302C17.658 11.8433 18.0919 11.6175 18.3727 11.13C18.4843 10.9369 18.5864 10.734 18.6662 10.5279C19.4223 8.57108 20.1689 6.611 20.9186 4.65092C20.941 4.59202 20.9601 4.53312 20.9697 4.47095C20.9824 4.37932 20.941 4.32697 20.8516 4.32697C20.6411 4.32369 20.4273 4.32697 20.2167 4.32697C20.0987 4.32697 20.0157 4.37932 19.9711 4.49712C19.9551 4.54293 19.936 4.58547 19.92 4.63129C19.5499 5.72095 19.1798 6.81061 18.8098 7.90354C18.73 8.13914 18.647 8.37801 18.5641 8.62998C18.5513 8.59398 18.5449 8.57435 18.5354 8.55144Z"
    fill="white" />
  <path
    d="M3.55947 12.6026C3.4159 12.5241 3.32338 12.547 3.25 12.6844V12.7498C3.29467 12.812 3.33295 12.884 3.39038 12.9364C4.76227 14.1929 6.30964 15.1419 8.03567 15.7832C8.87156 16.0941 9.7266 16.3199 10.6008 16.4671C11.1336 16.5555 11.6696 16.6176 12.2088 16.6405L12.2181 16.6408C12.3268 16.644 12.4385 16.6473 12.5501 16.6536C12.5757 16.6536 12.6044 16.6602 12.6299 16.6635H13.3031C13.3286 16.6602 13.3573 16.6536 13.3829 16.6536C13.9508 16.6405 14.5187 16.5816 15.0802 16.4966C15.8937 16.3722 16.6913 16.1792 17.4762 15.9207C18.6056 15.5443 19.6744 15.0437 20.6539 14.3532C20.7592 14.278 20.8708 14.2027 20.9602 14.1111C21.1165 13.9508 21.0431 13.7152 20.8294 13.6563C20.7273 13.6301 20.6315 13.6563 20.539 13.6955C18.8672 14.4154 17.1284 14.8768 15.329 15.096C14.7771 15.1615 14.2219 15.2073 13.6668 15.2204C12.6522 15.2466 11.6409 15.1877 10.6359 15.0502C9.95632 14.9586 9.28632 14.8277 8.61952 14.6641C7.20934 14.314 5.8534 13.8166 4.55489 13.1491C4.2167 12.9756 3.89128 12.7858 3.55947 12.6026Z"
    fill="#F29000" />
  <path
    d="M22.4597 12.3114C22.5969 12.3572 22.7181 12.4193 22.75 12.583V13.1491C22.7277 13.2669 22.7085 13.3879 22.683 13.5057C22.5426 14.17 22.3033 14.7885 21.895 15.3251C21.7737 15.4822 21.6302 15.6229 21.4898 15.7636C21.4515 15.8029 21.3909 15.8323 21.3366 15.8454C21.2441 15.8683 21.1899 15.8061 21.2058 15.7112C21.2122 15.6785 21.225 15.6458 21.2377 15.6131L21.2542 15.5701C21.4339 15.0999 21.6149 14.6263 21.7418 14.1373C21.8088 13.8886 21.8662 13.6366 21.8535 13.3748C21.8471 13.2047 21.7737 13.0803 21.611 13.0345C21.4611 12.992 21.3047 12.956 21.1516 12.9462C20.7879 12.9167 20.421 12.9396 20.0573 12.9756C19.8084 13.0018 19.5627 13.0313 19.3139 13.0574C19.2916 13.0607 19.266 13.0607 19.2437 13.0607C19.1958 13.064 19.1416 13.0509 19.1288 13.0018C19.1161 12.9625 19.1225 12.9069 19.1448 12.8709C19.1735 12.8251 19.2182 12.7891 19.2628 12.7564C19.6489 12.4848 20.0828 12.3343 20.539 12.2459C20.9538 12.1674 21.3717 12.1477 21.7897 12.1837C22.0162 12.2034 22.2427 12.2361 22.4597 12.3114Z"
    fill="#F29000" />
</svg>
