<svg xmlns="http://www.w3.org/2000/svg" width="32" height="24" fill="none" viewBox="0 0 32 24"><g clip-path="url(#a)"><g filter="url(#b)"><mask id="c" fill="#fff"><path d="M3 7a4 4 0 0 1 4-4h18a4 4 0 0 1 4 4v10a4 4 0 0 1-4 4H7a4 4 0 0 1-4-4V7Z"/></mask><path fill="#CACFD8" d="M3 7a4 4 0 0 1 4-4h18a4 4 0 0 1 4 4v10a4 4 0 0 1-4 4H7a4 4 0 0 1-4-4V7Z"/><path fill="#fff" fill-opacity=".1" d="M3 3h26H3Zm26 14a5 5 0 0 1-5 5H8a5 5 0 0 1-5-5c0 1.657 1.79 3 4 3h18c2.21 0 4-1.343 4-3ZM3 21V3v18ZM29 3v18V3Z" mask="url(#c)"/></g><g filter="url(#d)" opacity=".72"><rect width="8" height="2" x="17" y="15" fill="#fff" rx="1"/></g><g filter="url(#e)" opacity=".72"><rect width="8" height="2" x="7" y="15" fill="#fff" rx="1"/></g><g filter="url(#f)" opacity=".72"><rect width="3" height="3" x="7" y="7" fill="#fff" rx="1.5"/></g></g><defs><filter id="b" width="30" height="25" x="1" y="0" color-interpolation-filters="sRGB" filterUnits="userSpaceOnUse"><feFlood flood-opacity="0" result="BackgroundImageFix"/><feColorMatrix in="SourceAlpha" result="hardAlpha" values="0 0 0 0 0 0 0 0 0 0 0 0 0 0 0 0 0 0 127 0"/><feOffset dy="2"/><feGaussianBlur stdDeviation="1"/><feColorMatrix values="0 0 0 0 0.105882 0 0 0 0 0.109804 0 0 0 0 0.113725 0 0 0 0.04 0"/><feBlend in2="BackgroundImageFix" result="effect1_dropShadow_417_7004"/><feBlend in="SourceGraphic" in2="effect1_dropShadow_417_7004" result="shape"/><feColorMatrix in="SourceAlpha" result="hardAlpha" values="0 0 0 0 0 0 0 0 0 0 0 0 0 0 0 0 0 0 127 0"/><feOffset dy="-3"/><feGaussianBlur stdDeviation="1.5"/><feComposite in2="hardAlpha" k2="-1" k3="1" operator="arithmetic"/><feColorMatrix values="0 0 0 0 1 0 0 0 0 1 0 0 0 0 1 0 0 0 0.16 0"/><feBlend in2="shape" result="effect2_innerShadow_417_7004"/><feColorMatrix in="SourceAlpha" result="hardAlpha" values="0 0 0 0 0 0 0 0 0 0 0 0 0 0 0 0 0 0 127 0"/><feOffset dy="-2"/><feComposite in2="hardAlpha" k2="-1" k3="1" operator="arithmetic"/><feColorMatrix values="0 0 0 0 1 0 0 0 0 1 0 0 0 0 1 0 0 0 0.16 0"/><feBlend in2="effect2_innerShadow_417_7004" result="effect3_innerShadow_417_7004"/></filter><filter id="d" width="12" height="6" x="15" y="15" color-interpolation-filters="sRGB" filterUnits="userSpaceOnUse"><feFlood flood-opacity="0" result="BackgroundImageFix"/><feColorMatrix in="SourceAlpha" result="hardAlpha" values="0 0 0 0 0 0 0 0 0 0 0 0 0 0 0 0 0 0 127 0"/><feOffset dy="2"/><feGaussianBlur stdDeviation="1"/><feColorMatrix values="0 0 0 0 0.105882 0 0 0 0 0.109804 0 0 0 0 0.113725 0 0 0 0.04 0"/><feBlend in2="BackgroundImageFix" result="effect1_dropShadow_417_7004"/><feBlend in="SourceGraphic" in2="effect1_dropShadow_417_7004" result="shape"/></filter><filter id="e" width="12" height="6" x="5" y="15" color-interpolation-filters="sRGB" filterUnits="userSpaceOnUse"><feFlood flood-opacity="0" result="BackgroundImageFix"/><feColorMatrix in="SourceAlpha" result="hardAlpha" values="0 0 0 0 0 0 0 0 0 0 0 0 0 0 0 0 0 0 127 0"/><feOffset dy="2"/><feGaussianBlur stdDeviation="1"/><feColorMatrix values="0 0 0 0 0.105882 0 0 0 0 0.109804 0 0 0 0 0.113725 0 0 0 0.04 0"/><feBlend in2="BackgroundImageFix" result="effect1_dropShadow_417_7004"/><feBlend in="SourceGraphic" in2="effect1_dropShadow_417_7004" result="shape"/></filter><filter id="f" width="7" height="7" x="5" y="7" color-interpolation-filters="sRGB" filterUnits="userSpaceOnUse"><feFlood flood-opacity="0" result="BackgroundImageFix"/><feColorMatrix in="SourceAlpha" result="hardAlpha" values="0 0 0 0 0 0 0 0 0 0 0 0 0 0 0 0 0 0 127 0"/><feOffset dy="2"/><feGaussianBlur stdDeviation="1"/><feColorMatrix values="0 0 0 0 0.105882 0 0 0 0 0.109804 0 0 0 0 0.113725 0 0 0 0.04 0"/><feBlend in2="BackgroundImageFix" result="effect1_dropShadow_417_7004"/><feBlend in="SourceGraphic" in2="effect1_dropShadow_417_7004" result="shape"/></filter><clipPath id="a"><rect width="32" height="24" fill="#fff" rx="4"/></clipPath></defs></svg>