<svg fill="none" xmlns="http://www.w3.org/2000/svg" viewBox="40 20 26 20">
  <g filter="url(#filter0_dd_1306_2790)">
    <rect x="40" y="20" width="26" height="20" rx="4" fill="#5A31F4"></rect>
    <path
      d="M54.6998 28.3616C54.6998 29.5501 53.867 30.3983 52.7028 30.3983H51.6065C51.5944 30.3983 51.5824 30.4007 51.5712 30.4053C51.56 30.4099 51.5499 30.4167 51.5413 30.4253C51.5241 30.4426 51.5144 30.466 51.5143 30.4904V32.0524C51.5143 32.0768 51.5045 32.1002 51.4873 32.1175C51.47 32.1348 51.4466 32.1445 51.4222 32.1445H50.6546C50.6302 32.1445 50.6068 32.1348 50.5895 32.1175C50.5723 32.1002 50.5626 32.0768 50.5626 32.0524V26.4172C50.5626 26.3928 50.5723 26.3694 50.5895 26.3521C50.6068 26.3348 50.6302 26.3251 50.6546 26.3251H52.7079C53.867 26.3238 54.6998 27.172 54.6998 28.3616ZM53.7429 28.3616C53.7429 27.6785 53.2772 27.1796 52.6452 27.1796H51.6065C51.5944 27.1796 51.5824 27.1819 51.5712 27.1865C51.56 27.1912 51.5498 27.198 51.5413 27.2065C51.5327 27.2151 51.5259 27.2252 51.5213 27.2364C51.5167 27.2476 51.5143 27.2596 51.5143 27.2717V29.4465C51.5143 29.4586 51.5167 29.4706 51.5213 29.4818C51.5259 29.493 51.5327 29.5031 51.5413 29.5117C51.5498 29.5202 51.56 29.527 51.5712 29.5316C51.5824 29.5363 51.5944 29.5386 51.6065 29.5386H52.6452C53.2772 29.5425 53.7429 29.0436 53.7429 28.3616ZM54.9275 31.0636C54.9196 30.8814 54.9574 30.7 55.0373 30.536C55.1173 30.372 55.237 30.2306 55.3854 30.1246C55.6849 29.8995 56.153 29.783 56.84 29.7586L57.5718 29.7331V29.5169C57.5718 29.0844 57.2814 28.9016 56.8157 28.9016C56.3501 28.9016 56.0546 29.0667 55.9868 29.3366C55.9812 29.3555 55.9695 29.372 55.9535 29.3836C55.9375 29.3951 55.9182 29.4011 55.8985 29.4005H55.1757C55.1624 29.4008 55.1491 29.3982 55.1369 29.3929C55.1247 29.3875 55.1139 29.3795 55.1051 29.3695C55.0963 29.3595 55.0898 29.3477 55.0861 29.3349C55.0824 29.3221 55.0815 29.3086 55.0835 29.2955C55.191 28.6559 55.7232 28.1699 56.849 28.1699C58.0464 28.1699 58.4788 28.7275 58.4788 29.7919V32.0524C58.4785 32.077 58.4685 32.1004 58.451 32.1177C58.4336 32.135 58.41 32.1446 58.3854 32.1445H57.6562C57.6441 32.1446 57.6322 32.1422 57.621 32.1376C57.6098 32.133 57.5997 32.1262 57.5911 32.1176C57.5826 32.1091 57.5758 32.0989 57.5711 32.0877C57.5665 32.0765 57.5641 32.0645 57.5641 32.0524V31.8836C57.5644 31.8697 57.5604 31.8561 57.5528 31.8444C57.5451 31.8328 57.5341 31.8238 57.5213 31.8185C57.5084 31.8133 57.4942 31.812 57.4806 31.815C57.467 31.8179 57.4546 31.8249 57.4451 31.835C57.2264 32.0728 56.8733 32.2444 56.3078 32.2444C55.4763 32.2444 54.9275 31.8119 54.9275 31.0636ZM57.5718 30.5736V30.3983L56.6238 30.4482C56.1249 30.4738 55.8345 30.681 55.8345 31.0303C55.8345 31.3462 56.1006 31.5216 56.5663 31.5216C57.1983 31.5216 57.5718 31.1799 57.5718 30.5736ZM59.2106 33.8524V33.1974C59.2106 33.1836 59.2136 33.17 59.2195 33.1576C59.2254 33.1452 59.234 33.1342 59.2446 33.1255C59.2553 33.1168 59.2677 33.1106 59.2811 33.1073C59.2945 33.104 59.3084 33.1038 59.3219 33.1065C59.4337 33.1276 59.5472 33.1383 59.6609 33.1385C59.8565 33.1481 60.0497 33.0918 60.2095 32.9787C60.3693 32.8655 60.4865 32.702 60.5424 32.5143L60.5897 32.3633C60.5966 32.343 60.5966 32.3209 60.5897 32.3006L59.0711 28.4013C59.0655 28.3872 59.0634 28.3718 59.0651 28.3567C59.0676 28.3337 59.0784 28.3125 59.0956 28.2972C59.1128 28.2818 59.1351 28.2734 59.1582 28.2736H59.8937C59.9125 28.2736 59.931 28.2794 59.9465 28.2901C59.962 28.3008 59.974 28.316 59.9807 28.3336L61.0119 31.0841C61.0181 31.1024 61.03 31.1184 61.0459 31.1297C61.0617 31.1409 61.0806 31.147 61.1001 31.1469C61.1195 31.1468 61.1384 31.1408 61.1542 31.1295C61.1701 31.1183 61.182 31.1024 61.1884 31.0841L62.0839 28.3412C62.0901 28.3225 62.1022 28.3062 62.1182 28.2947C62.1343 28.2832 62.1536 28.2771 62.1734 28.2772H62.9346C62.9499 28.2773 62.9649 28.281 62.9784 28.2882C62.9919 28.2953 63.0035 28.3056 63.0122 28.3181C63.0209 28.3307 63.0264 28.3452 63.0282 28.3603C63.0301 28.3755 63.0283 28.3909 63.0229 28.4052L61.3982 32.7355C61.0246 33.7424 60.3837 33.9995 59.6776 33.9995C59.5437 34.0031 59.4101 33.9871 59.2809 33.9522C59.2593 33.9466 59.2404 33.9334 59.2276 33.9151C59.2146 33.8969 59.2086 33.8747 59.2106 33.8524ZM45.6309 26.0001C44.6638 25.9932 43.7307 26.3572 43.0237 27.0172C42.9934 27.0449 42.9744 27.0829 42.9707 27.1239C42.9669 27.1648 42.9785 27.2057 43.0033 27.2385L43.4408 27.8359C43.455 27.8558 43.4734 27.8723 43.4947 27.8844C43.5159 27.8964 43.5396 27.9037 43.564 27.9056C43.5883 27.9076 43.6128 27.9042 43.6358 27.8957C43.6587 27.8871 43.6794 27.8737 43.6966 27.8563C43.9508 27.6021 44.2532 27.4012 44.5859 27.2652C44.9187 27.1292 45.2753 27.061 45.6347 27.0644C47.1354 27.0644 47.9195 28.1941 47.9195 29.3097C47.9195 30.5224 47.0957 31.3757 45.9124 31.3923C44.9977 31.3923 44.3081 30.786 44.3081 29.985C44.3091 29.7827 44.3549 29.5831 44.4422 29.4006C44.5296 29.2181 44.6564 29.0573 44.8134 28.9297C44.8467 28.902 44.8678 28.8624 44.8721 28.8193C44.8764 28.7762 44.8637 28.7332 44.8365 28.6994L44.3759 28.1186C44.362 28.101 44.3447 28.0864 44.325 28.0757C44.3054 28.0649 44.2837 28.0582 44.2614 28.0559C44.2391 28.0536 44.2166 28.0559 44.1952 28.0625C44.1737 28.0691 44.1539 28.0799 44.1367 28.0944C43.8542 28.322 43.6262 28.6099 43.4695 28.9371C43.3128 29.2643 43.2312 29.6224 43.2309 29.9851C43.2309 31.3641 44.4027 32.4453 45.9035 32.4542H45.9238C47.7059 32.4311 48.9942 31.1108 48.9942 29.3071C48.9942 27.7054 47.8147 26.0001 45.6309 26.0001Z"
      fill="white"></path>
  </g>
  <defs>
    <filter
      id="filter0_dd_1306_2790"
      x="0"
      y="0"
      width="106"
      height="100"
      filterUnits="userSpaceOnUse"
      color-interpolation-filters="sRGB">
      <feFlood flood-opacity="0" result="BackgroundImageFix"></feFlood>
      <feColorMatrix
        in="SourceAlpha"
        type="matrix"
        values="0 0 0 0 0 0 0 0 0 0 0 0 0 0 0 0 0 0 127 0"
        result="hardAlpha"></feColorMatrix>
      <feOffset dy="2"></feOffset>
      <feGaussianBlur stdDeviation="10"></feGaussianBlur>
      <feColorMatrix
        type="matrix"
        values="0 0 0 0 0.717647 0 0 0 0 0.717647 0 0 0 0 0.717647 0 0 0 0.08 0"></feColorMatrix>
      <feBlend
        mode="normal"
        in2="BackgroundImageFix"
        result="effect1_dropShadow_1306_2790"></feBlend>
      <feColorMatrix
        in="SourceAlpha"
        type="matrix"
        values="0 0 0 0 0 0 0 0 0 0 0 0 0 0 0 0 0 0 127 0"
        result="hardAlpha"></feColorMatrix>
      <feOffset dy="20"></feOffset>
      <feGaussianBlur stdDeviation="20"></feGaussianBlur>
      <feColorMatrix
        type="matrix"
        values="0 0 0 0 0.717647 0 0 0 0 0.717647 0 0 0 0 0.717647 0 0 0 0.08 0"></feColorMatrix>
      <feBlend
        mode="normal"
        in2="effect1_dropShadow_1306_2790"
        result="effect2_dropShadow_1306_2790"></feBlend>
      <feBlend
        mode="normal"
        in="SourceGraphic"
        in2="effect2_dropShadow_1306_2790"
        result="shape"></feBlend>
    </filter>
  </defs>
</svg>
