<svg
  width="51"
  height="51"
  viewBox="0 0 51 51"
  fill="none"
  xmlns="http://www.w3.org/2000/svg">
  <g clip-path="url(#clip0_4_6584)">
    <path
      d="M29.045 19.0149C30.7856 18.2407 32.2643 16.9786 33.3021 15.3812C34.3399 13.7838 34.8922 11.9198 34.8922 10.0149C34.8922 8.10995 34.3399 6.24592 33.3021 4.64854C32.2643 3.05116 30.7856 1.78897 29.045 1.01486C28.6101 0.825816 28.1349 0.747907 27.6624 0.788145C27.1898 0.828383 26.7347 0.985504 26.338 1.24536C25.9412 1.50523 25.6154 1.85967 25.3897 2.27678C25.164 2.6939 25.0455 3.1606 25.045 3.63486V16.4049C25.0472 16.8783 25.1668 17.3438 25.3932 17.7595C25.6196 18.1753 25.9457 18.5284 26.3421 18.7871C26.7386 19.0458 27.1931 19.202 27.6649 19.2418C28.1366 19.2815 28.6109 19.2036 29.045 19.0149Z"
      fill="#7D52F4" />
    <path
      d="M18.275 21.7849C17.5009 20.0444 16.2387 18.5657 14.6413 17.5279C13.0439 16.4901 11.1799 15.9377 9.27499 15.9377C7.37009 15.9377 5.50605 16.4901 3.90867 17.5279C2.31129 18.5657 1.0491 20.0444 0.27499 21.7849C0.0859478 22.2199 0.00803892 22.695 0.0482768 23.1676C0.0885147 23.6401 0.245636 24.0953 0.505497 24.492C0.765357 24.8887 1.1198 25.2146 1.53692 25.4403C1.95403 25.666 2.42073 25.7844 2.89499 25.7849H15.665C16.1384 25.7828 16.6039 25.6632 17.0197 25.4368C17.4354 25.2104 17.7885 24.8843 18.0472 24.4878C18.3059 24.0914 18.4622 23.6369 18.5019 23.1651C18.5417 22.6934 18.4637 22.2191 18.275 21.7849Z"
      fill="#7D52F4" />
    <path
      d="M21.0449 32.5549C19.3044 33.329 17.8257 34.5912 16.7879 36.1886C15.7501 37.786 15.1978 39.65 15.1978 41.5549C15.1978 43.4598 15.7501 45.3238 16.7879 46.9212C17.8257 48.5186 19.3044 49.7808 21.0449 50.5549C21.4799 50.7439 21.955 50.8219 22.4276 50.7816C22.9001 50.7414 23.3553 50.5843 23.752 50.3244C24.1487 50.0645 24.4746 49.7101 24.7003 49.293C24.926 48.8759 25.0444 48.4092 25.0449 47.9349V35.1649C25.0428 34.6915 24.9232 34.226 24.6968 33.8102C24.4704 33.3944 24.1443 33.0414 23.7478 32.7827C23.3514 32.524 22.8969 32.3677 22.4251 32.328C21.9534 32.2882 21.4791 32.3662 21.0449 32.5549Z"
      fill="#7D52F4" />
    <path
      d="M47.175 25.785H34.425C33.9516 25.7871 33.4861 25.9067 33.0704 26.1331C32.6546 26.3595 32.3015 26.6856 32.0428 27.0821C31.7841 27.4785 31.6279 27.933 31.5881 28.4048C31.5484 28.8765 31.6263 29.3508 31.815 29.785C32.5891 31.5255 33.8513 33.0042 35.4487 34.042C37.0461 35.0798 38.9101 35.6321 40.815 35.6321C42.7199 35.6321 44.584 35.0798 46.1814 34.042C47.7787 33.0042 49.0409 31.5255 49.815 29.785C50.0048 29.3485 50.0826 28.8715 50.0413 28.3973C50.0001 27.9231 49.8413 27.4667 49.5791 27.0695C49.3169 26.6723 48.9597 26.3467 48.5399 26.1224C48.1201 25.8981 47.651 25.7821 47.175 25.785Z"
      fill="#7D52F4" />
    <path
      d="M18.405 19.1448C18.7431 19.4833 19.1606 19.732 19.6193 19.868C20.078 20.0041 20.5635 20.0233 21.0316 19.924C21.4996 19.8246 21.9354 19.6098 22.2993 19.299C22.6631 18.9883 22.9436 18.5915 23.115 18.1448C23.7908 16.3695 23.9389 14.4366 23.5414 12.5791C23.1439 10.7215 22.2177 9.01851 20.8745 7.67528C19.5313 6.33205 17.8283 5.40589 15.9707 5.00837C14.1132 4.61085 12.1803 4.75895 10.405 5.43481C9.95834 5.60484 9.56143 5.88408 9.25051 6.24703C8.93959 6.60997 8.72457 7.04505 8.62512 7.5125C8.52566 7.97995 8.54493 8.46486 8.68116 8.92295C8.81739 9.38103 9.06625 9.79768 9.40498 10.1348L18.405 19.1448Z"
      fill="#7D52F4" />
    <path
      d="M17.395 27.7148C15.6202 27.0417 13.6887 26.8958 11.8329 27.2945C9.9771 27.6933 8.27605 28.6197 6.93438 29.9624C5.59272 31.3052 4.66759 33.0069 4.2703 34.8631C3.87301 36.7192 4.02048 38.6505 4.69496 40.4248C4.86499 40.8714 5.14423 41.2683 5.50718 41.5793C5.87012 41.8902 6.3052 42.1052 6.77265 42.2047C7.2401 42.3041 7.72502 42.2848 8.1831 42.1486C8.64118 42.0124 9.05783 41.7635 9.39496 41.4248L18.395 32.4248C18.7335 32.0866 18.9821 31.6692 19.1182 31.2105C19.2543 30.7517 19.2735 30.2663 19.1741 29.7982C19.0747 29.3301 18.8599 28.8944 18.5492 28.5305C18.2385 28.1666 17.8417 27.8862 17.395 27.7148Z"
      fill="#7D52F4" />
    <path
      d="M31.685 32.4247C31.3469 32.0862 30.9295 31.8376 30.4707 31.7015C30.012 31.5654 29.5265 31.5462 29.0585 31.6456C28.5904 31.745 28.1546 31.9598 27.7908 32.2705C27.4269 32.5812 27.1465 32.978 26.975 33.4247C26.302 35.1995 26.156 37.131 26.5548 38.9868C26.9535 40.8426 27.88 42.5437 29.2227 43.8853C30.5654 45.227 32.2672 46.1521 34.1233 46.5494C35.9794 46.9467 37.9108 46.7992 39.685 46.1247C40.1317 45.9547 40.5286 45.6755 40.8395 45.3125C41.1504 44.9496 41.3655 44.5145 41.4649 44.0471C41.5644 43.5796 41.5451 43.0947 41.4089 42.6366C41.2726 42.1785 41.0238 41.7619 40.685 41.4247L31.685 32.4247Z"
      fill="#7D52F4" />
    <path
      d="M32.695 23.855C34.4698 24.5281 36.4013 24.674 38.2571 24.2753C40.1129 23.8765 41.8139 22.95 43.1556 21.6073C44.4972 20.2646 45.4224 18.5628 45.8197 16.7067C46.217 14.8506 46.0695 12.9192 45.395 11.145C45.225 10.6983 44.9457 10.3014 44.5828 9.9905C44.2198 9.67958 43.7848 9.46456 43.3173 9.36511C42.8499 9.26565 42.365 9.28492 41.9069 9.42115C41.4488 9.55738 41.0321 9.80624 40.695 10.145L31.695 19.145C31.3565 19.4831 31.1079 19.9006 30.9718 20.3593C30.8357 20.818 30.8165 21.3035 30.9158 21.7716C31.0152 22.2396 31.23 22.6754 31.5408 23.0393C31.8515 23.4031 32.2483 23.6835 32.695 23.855Z"
      fill="#7D52F4" />
  </g>
  <defs>
    <clipPath id="clip0_4_6584">
      <rect
        width="50"
        height="50"
        fill="#7D52F4"
        transform="translate(0.0450439 0.784912)" />
    </clipPath>
  </defs>
</svg>
