<svg
  width="50"
  height="51"
  viewBox="0 0 50 51"
  fill="none"
  xmlns="http://www.w3.org/2000/svg">
  <g clip-path="url(#clip0_4_2570)">
    <path
      d="M42.6801 8.02007C41.29 6.62483 39.7391 5.39958 38.0601 4.37007L38.4901 5.11007C38.3501 4.86007 38.2001 4.62007 38.0501 4.37007C33.2638 1.44507 27.633 0.214651 22.063 0.876671C16.4929 1.53869 11.3073 4.05468 7.34007 8.02007C5.95152 9.41356 4.72996 10.964 3.70007 12.6401C1.37947 16.4279 0.110052 20.7657 0.0224419 25.207C-0.0651682 29.6483 1.03219 34.0328 3.20161 37.9092C5.37102 41.7856 8.53413 45.014 12.3654 47.2622C16.1967 49.5103 20.5579 50.697 25.0001 50.7001C28.2833 50.7007 31.5346 50.0546 34.5681 48.7986C37.6017 47.5426 40.3581 45.7014 42.6801 43.3801C45.0022 41.0585 46.8443 38.3022 48.1011 35.2687C49.3579 32.2351 50.0047 28.9837 50.0047 25.7001C50.0047 22.4165 49.3579 19.165 48.1011 16.1315C46.8443 13.0979 45.0022 10.3416 42.6801 8.02007ZM34.3901 35.0901C30.0491 39.4505 24.2443 42.0447 18.1001 42.3701L18.2201 42.5101L18.0901 42.3701C13.9886 37.7861 11.721 31.851 11.721 25.7001C11.721 19.5491 13.9886 13.614 18.0901 9.03007C23.0289 9.29802 27.7772 11.0249 31.7343 13.9923C35.6913 16.9596 38.6793 21.0341 40.3201 25.7001C39.0724 29.2351 37.0457 32.4443 34.3901 35.0901Z"
      fill="#7d52f4" />
  </g>
  <defs>
    <clipPath id="clip0_4_2570">
      <rect
        width="50"
        height="50"
        fill="#7d52f4"
        transform="translate(0 0.699951)" />
    </clipPath>
  </defs>
</svg>
