<svg
  width="64"
  height="64"
  viewBox="0 0 64 64"
  fill="none"
  xmlns="http://www.w3.org/2000/svg">
  <path
    fill-rule="evenodd"
    clip-rule="evenodd"
    d="M36.0377 2.06966C34.1698 0.972081 31.8552 0.966778 29.9822 2.05579L6 15.9999L6.09609 16.0564C5.68291 16.3491 5.17093 16.7641 4.6332 17.326C3.47014 18.5415 2.22185 20.4096 1.58488 23.1042C0.570668 27.3947 1.89906 30.5522 3.67523 32.4268C2.80786 33.5897 1.99133 35.141 1.51568 37.1532C0.19349 42.7466 2.85272 46.4144 5.29503 47.8246L29.9857 62.168C32.468 63.6101 35.5328 63.6115 38.0164 62.1717L53.5788 53.15L56.4968 51.4033C56.5429 51.3785 56.5959 51.3493 56.6551 51.3152C56.8043 51.2294 56.9937 51.1128 57.2126 50.9615C57.6495 50.6595 58.209 50.2156 58.7991 49.599C59.9924 48.352 61.2754 46.4331 61.9305 43.6619C62.5333 41.1118 62.5319 38.8846 61.7913 36.9842C61.0275 35.0239 59.6448 33.8372 58.3432 33.0858C56.2226 31.8615 53.8985 32.4811 52.8124 32.8552C52.1574 33.0808 51.5969 33.3443 51.2054 33.5465L36.5 42L35.8524 42.3636C35.6073 42.5001 35.2863 42.6653 34.9518 42.8044C34.7746 42.8781 34.5 43 34 42.5C33.4952 41.9856 33.2612 41.2413 33.8166 38.8916C34.1996 37.2714 34.9066 36.284 35.4439 35.7225C35.719 35.435 35.9599 35.2491 36.107 35.1475C36.1684 35.105 36.2343 35.065 36.2343 35.065L37.3443 34.4085L61.0999 20.2306C62.4052 19.4517 62.3987 17.5589 61.0882 16.7889L36.0377 2.06966ZM53.9588 38.8775L39.363 47.2582C39.3497 47.2664 39.3782 47.249 39.363 47.2582C39.363 47.2582 38.9614 47.4999 38.7714 47.6057C38.3975 47.8139 37.8641 48.0914 37.2564 48.3442C36.6684 48.5888 35.8965 48.8589 35.0677 48.9803C34.5338 49.0584 33.7707 49.1056 32.9548 48.8994C30.4875 47.5276 22.9831 43.5962 19.6367 41.7345C15.6284 39.5044 11.5376 37.2272 8.75811 35.6766C8.27317 36.227 7.68674 37.129 7.35476 38.5334C6.67326 41.4165 8.02783 42.4741 8.29523 42.6285L33.0435 56.9154C33.662 57.2725 34.4241 57.2726 35.0427 56.9157L50.5378 47.9776L53.8011 46.0258C53.9481 45.9241 54.189 45.7383 54.4641 45.4507C55.0014 44.8893 55.7084 43.9019 56.0914 42.2817C56.5266 40.4403 56.3505 39.5467 56.2008 39.1627C56.0863 38.8689 55.9152 38.7624 55.5 38.5C55.5 38.5 55.0821 38.4194 54.7666 38.5281C54.461 38.6333 54.1743 38.7661 53.9588 38.8775Z"
    fill="#7d52f4" />
</svg>
