<svg
  width="83"
  height="83"
  viewBox="0 0 83 83"
  fill="none"
  xmlns="http://www.w3.org/2000/svg">
  <path
    d="M69.6016 42.9334C57.2496 47.3894 47.5229 57.1161 43.0669 69.4681L41.7923 72.9987L40.5189 69.4681C36.0616 57.1161 26.3363 47.3894 13.9843 42.9334L10.4536 41.6587L13.9843 40.3854C26.3363 35.9281 36.0616 26.2027 40.5189 13.8507L41.7923 10.3201L43.0669 13.8507C47.5229 26.2027 57.2496 35.9281 69.6016 40.3854L73.1323 41.6587L69.6016 42.9334ZM41.7923 0.750727C19.2003 0.750727 0.884277 19.0667 0.884277 41.6587C0.884277 64.2521 19.2003 82.5681 41.7923 82.5681C64.3856 82.5681 82.7016 64.2521 82.7016 41.6587C82.7016 19.0667 64.3856 0.750727 41.7923 0.750727Z"
    fill="#7D52F4" />
</svg>
