<svg width="290" height="216" viewBox="0 0 290 216" fill="none" xmlns="http://www.w3.org/2000/svg">
<g filter="url(#filter0_dd_1302_8257)">
<rect x="41" y="21" width="208" height="134" rx="24" fill="#253B80"/>
<rect x="40.5" y="20.5" width="209" height="135" rx="24.5" stroke="#D6DCE5"/>
<path fill-rule="evenodd" clip-rule="evenodd" d="M81.2657 66.0048H68.1301C67.2312 66.0048 66.4667 66.658 66.3265 67.545L61.0138 101.225C60.9082 101.89 61.4229 102.489 62.0971 102.489H68.3682C69.2671 102.489 70.0316 101.835 70.1717 100.947L71.6046 91.8627C71.7429 90.9731 72.5092 90.3207 73.4062 90.3207H77.5645C86.2174 90.3207 91.211 86.1339 92.5158 77.8375C93.1033 74.2079 92.5407 71.3559 90.8403 69.358C88.9737 67.1655 85.6619 66.0048 81.2657 66.0048ZM82.7812 78.3058C82.063 83.0188 78.4615 83.0188 74.9793 83.0188H72.9971L74.3877 74.2167C74.4703 73.6853 74.9312 73.2933 75.4691 73.2933H76.3776C78.7496 73.2933 80.9875 73.2933 82.1439 74.6451C82.8327 75.4521 83.0443 76.6501 82.7812 78.3058ZM120.531 78.1548H114.241C113.705 78.1548 113.242 78.5467 113.159 79.0791L112.881 80.8379L112.441 80.2006C111.079 78.2241 108.043 77.5637 105.012 77.5637C98.0604 77.5637 92.1238 82.8278 90.9674 90.2123C90.3666 93.8953 91.2207 97.4174 93.3104 99.8738C95.2277 102.132 97.9706 103.073 101.234 103.073C106.834 103.073 109.941 99.4721 109.941 99.4721L109.66 101.22C109.554 101.889 110.069 102.488 110.739 102.488H116.405C117.307 102.488 118.067 101.834 118.209 100.946L121.609 79.4186C121.716 78.7564 121.203 78.1548 120.531 78.1548ZM111.763 90.3963C111.156 93.9895 108.303 96.4015 104.666 96.4015C102.84 96.4015 101.379 95.8158 100.443 94.7058C99.5128 93.6038 99.159 92.0343 99.455 90.287C100.022 86.724 102.922 84.2338 106.504 84.2338C108.29 84.2338 109.743 84.8265 110.699 85.9463C111.657 87.0777 112.037 88.6561 111.763 90.3963ZM147.711 78.1539H154.033C154.918 78.1539 155.434 79.1466 154.931 79.8727L133.908 110.216C133.567 110.708 133.006 111 132.407 111H126.094C125.205 111 124.686 109.999 125.2 109.271L131.747 100.032L124.784 79.6016C124.544 78.8915 125.068 78.1539 125.823 78.1539H132.035C132.842 78.1539 133.554 78.6836 133.787 79.4559L137.482 91.7952L146.2 78.9546C146.542 78.4534 147.109 78.1539 147.711 78.1539Z" fill="white"/>
<path fill-rule="evenodd" clip-rule="evenodd" d="M216.249 101.222L221.64 66.9261C221.723 66.3937 222.184 66.0018 222.72 66H228.789C229.459 66 229.974 66.6008 229.868 67.2656L224.552 100.944C224.413 101.832 223.649 102.486 222.748 102.486H217.328C216.658 102.486 216.143 101.886 216.249 101.222ZM174.963 66.0018H161.825C160.928 66.0018 160.164 66.655 160.023 67.542L154.711 101.222C154.605 101.886 155.12 102.486 155.791 102.486H162.532C163.158 102.486 163.694 102.029 163.792 101.407L165.3 91.8597C165.438 90.9701 166.205 90.3178 167.101 90.3178H171.258C179.912 90.3178 184.905 86.1309 186.211 77.8345C186.8 74.2049 186.234 71.3529 184.534 69.355C182.669 67.1625 179.359 66.0018 174.963 66.0018ZM176.479 78.3029C175.762 83.0159 172.161 83.0159 168.676 83.0159H166.696L168.089 74.2137C168.172 73.6823 168.628 73.2903 169.168 73.2903H170.076C172.447 73.2903 174.687 73.2903 175.842 74.6421C176.532 75.4491 176.742 76.6471 176.479 78.3029ZM214.225 78.1518H207.939C207.399 78.1518 206.94 78.5437 206.859 79.0761L206.581 80.8349L206.139 80.1976C204.778 78.2211 201.743 77.5608 198.712 77.5608C191.761 77.5608 185.826 82.8248 184.669 90.2093C184.07 93.8923 184.921 97.4143 187.011 99.8708C188.931 102.129 191.671 103.07 194.934 103.07C200.534 103.07 203.64 99.4691 203.64 99.4691L203.36 101.217C203.254 101.886 203.769 102.485 204.444 102.485H210.107C211.004 102.485 211.769 101.831 211.909 100.943L215.311 79.4156C215.415 78.7534 214.9 78.1518 214.225 78.1518ZM205.458 90.3933C204.854 93.9865 201.998 96.3985 198.36 96.3985C196.537 96.3985 195.074 95.8128 194.136 94.7028C193.207 93.6008 192.857 92.0313 193.15 90.284C193.72 86.721 196.616 84.2308 200.198 84.2308C201.985 84.2308 203.436 84.8235 204.394 85.9434C205.356 87.0747 205.736 88.6531 205.458 90.3933Z" fill="white"/>
</g>
<defs>
<filter id="filter0_dd_1302_8257" x="0" y="0" width="290" height="216" filterUnits="userSpaceOnUse" color-interpolation-filters="sRGB">
<feFlood flood-opacity="0" result="BackgroundImageFix"/>
<feColorMatrix in="SourceAlpha" type="matrix" values="0 0 0 0 0 0 0 0 0 0 0 0 0 0 0 0 0 0 127 0" result="hardAlpha"/>
<feOffset dy="2"/>
<feGaussianBlur stdDeviation="10"/>
<feColorMatrix type="matrix" values="0 0 0 0 0.717647 0 0 0 0 0.717647 0 0 0 0 0.717647 0 0 0 0.08 0"/>
<feBlend mode="normal" in2="BackgroundImageFix" result="effect1_dropShadow_1302_8257"/>
<feColorMatrix in="SourceAlpha" type="matrix" values="0 0 0 0 0 0 0 0 0 0 0 0 0 0 0 0 0 0 127 0" result="hardAlpha"/>
<feOffset dy="20"/>
<feGaussianBlur stdDeviation="20"/>
<feColorMatrix type="matrix" values="0 0 0 0 0.717647 0 0 0 0 0.717647 0 0 0 0 0.717647 0 0 0 0.08 0"/>
<feBlend mode="normal" in2="effect1_dropShadow_1302_8257" result="effect2_dropShadow_1302_8257"/>
<feBlend mode="normal" in="SourceGraphic" in2="effect2_dropShadow_1302_8257" result="shape"/>
</filter>
</defs>
</svg>
